<mxfile host="app.diagrams.net" agent="Mozilla/5.0 (Windows NT 10.0; Win64; x64; rv:142.0) Gecko/20100101 Firefox/142.0" version="28.1.2">
  <diagram name="Страница — 1" id="0YLl_X13wCaZ4vrBOK04">
    <mxGraphModel dx="1375" dy="725" grid="1" gridSize="10" guides="1" tooltips="1" connect="1" arrows="1" fold="1" page="1" pageScale="1" pageWidth="827" pageHeight="1169" math="0" shadow="0">
      <root>
        <mxCell id="0" />
        <mxCell id="1" parent="0" />
        <mxCell id="Pg81uQ4RBYQgmMe1Dac4-3" value="&lt;font style=&quot;font-size: 18px;&quot;&gt;1&lt;/font&gt;" style="ellipse;whiteSpace=wrap;html=1;aspect=fixed;fillColor=#d5e8d4;strokeColor=#82b366;shadow=1;" parent="1" vertex="1">
          <mxGeometry x="87.5" y="200" width="30" height="30" as="geometry" />
        </mxCell>
        <mxCell id="Pg81uQ4RBYQgmMe1Dac4-4" value="&lt;font style=&quot;font-size: 18px;&quot;&gt;2&lt;/font&gt;" style="ellipse;whiteSpace=wrap;html=1;aspect=fixed;fillColor=#dae8fc;strokeColor=#6c8ebf;" parent="1" vertex="1">
          <mxGeometry x="87.5" y="320" width="30" height="30" as="geometry" />
        </mxCell>
        <mxCell id="Pg81uQ4RBYQgmMe1Dac4-5" value="&lt;font style=&quot;font-size: 18px;&quot;&gt;4&lt;/font&gt;" style="ellipse;whiteSpace=wrap;html=1;aspect=fixed;fillColor=#dae8fc;strokeColor=#6c8ebf;shadow=1;" parent="1" vertex="1">
          <mxGeometry x="87.5" y="555" width="30" height="30" as="geometry" />
        </mxCell>
        <mxCell id="Pg81uQ4RBYQgmMe1Dac4-6" value="&lt;font style=&quot;font-size: 18px;&quot;&gt;3&lt;/font&gt;" style="ellipse;whiteSpace=wrap;html=1;aspect=fixed;fillColor=#d5e8d4;strokeColor=#82b366;shadow=1;" parent="1" vertex="1">
          <mxGeometry x="87.5" y="445" width="30" height="30" as="geometry" />
        </mxCell>
        <mxCell id="Pg81uQ4RBYQgmMe1Dac4-12" value="&lt;span style=&quot;font-size: 14pt; font-family: Calibri; color: black;&quot;&gt;Выбор&amp;nbsp;&lt;/span&gt;&lt;span style=&quot;font-size:14.0pt;font-family:Calibri;mso-ascii-font-family:&amp;lt;br/&amp;gt;Calibri;mso-fareast-font-family:+mn-ea;mso-bidi-font-family:+mn-cs;mso-ascii-theme-font:&amp;lt;br/&amp;gt;minor-latin;mso-fareast-theme-font:minor-fareast;mso-bidi-theme-font:minor-bidi;&amp;lt;br/&amp;gt;color:black;mso-color-index:1;mso-font-kerning:12.0pt;language:ru;font-weight:&amp;lt;br/&amp;gt;bold;mso-style-textfill-type:solid;mso-style-textfill-fill-themecolor:text1;&amp;lt;br/&amp;gt;mso-style-textfill-fill-color:black;mso-style-textfill-fill-alpha:100.0%&quot;&gt;приоритетной&amp;nbsp;подсистемы&lt;/span&gt;&amp;nbsp;&lt;br&gt;(Группы бизнес процесов)" style="rounded=1;whiteSpace=wrap;html=1;fillColor=#d5e8d4;strokeColor=#82b366;shadow=1;" parent="1" vertex="1">
          <mxGeometry x="160" y="170" width="300" height="90" as="geometry" />
        </mxCell>
        <mxCell id="Pg81uQ4RBYQgmMe1Dac4-14" value="&lt;span style=&quot;font-size: 14pt; font-family: Calibri; color: black;&quot;&gt;AS&amp;nbsp;&lt;/span&gt;&lt;span style=&quot;font-size:14.0pt;font-family:Calibri;mso-ascii-font-family:&amp;lt;br/&amp;gt;Calibri;mso-fareast-font-family:+mn-ea;mso-bidi-font-family:+mn-cs;mso-ascii-theme-font:&amp;lt;br/&amp;gt;minor-latin;mso-fareast-theme-font:minor-fareast;mso-bidi-theme-font:minor-bidi;&amp;lt;br/&amp;gt;color:black;mso-color-index:1;mso-font-kerning:12.0pt;language:ru;font-weight:&amp;lt;br/&amp;gt;bold;mso-style-textfill-type:solid;mso-style-textfill-fill-themecolor:text1;&amp;lt;br/&amp;gt;mso-style-textfill-fill-color:black;mso-style-textfill-fill-alpha:100.0%&quot;&gt;IS&amp;nbsp;&lt;br&gt;(в&amp;nbsp;УНФ &quot;как есть&quot;)&lt;/span&gt;" style="rounded=1;whiteSpace=wrap;html=1;fillColor=#dae8fc;strokeColor=#6c8ebf;shadow=1;align=center;" parent="1" vertex="1">
          <mxGeometry x="160" y="280" width="300" height="110" as="geometry" />
        </mxCell>
        <mxCell id="Pg81uQ4RBYQgmMe1Dac4-16" value="&lt;br&gt;&lt;br&gt;&lt;div style=&quot;language:ru;margin-top:0pt;margin-bottom:0pt;margin-left:0in;&amp;lt;br/&amp;gt;text-align:left;direction:ltr;unicode-bidi:embed;mso-line-break-override:none;&amp;lt;br/&amp;gt;word-break:normal;punctuation-wrap:hanging&quot;&gt;&lt;span style=&quot;font-size:14.0pt;font-family:Calibri;mso-ascii-font-family:Calibri;&amp;lt;br/&amp;gt;mso-fareast-font-family:+mn-ea;mso-bidi-font-family:+mn-cs;mso-ascii-theme-font:&amp;lt;br/&amp;gt;minor-latin;mso-fareast-theme-font:minor-fareast;mso-bidi-theme-font:minor-bidi;&amp;lt;br/&amp;gt;color:black;mso-color-index:1;mso-font-kerning:12.0pt;language:ru;mso-style-textfill-type:&amp;lt;br/&amp;gt;solid;mso-style-textfill-fill-themecolor:text1;mso-style-textfill-fill-color:&amp;lt;br/&amp;gt;black;mso-style-textfill-fill-alpha:100.0%&quot;&gt;Аналитик описывает ТЗ на каждую&lt;br&gt;доработку, разработчик дает оценку в часах&lt;/span&gt;&lt;span style=&quot;font-size: 14pt; color: black;&quot;&gt;.&lt;/span&gt;&lt;/div&gt;&lt;br&gt;&lt;div&gt;&lt;br&gt;&lt;/div&gt;" style="rounded=1;whiteSpace=wrap;html=1;fillColor=#dae8fc;strokeColor=#6c8ebf;shadow=1;" parent="1" vertex="1">
          <mxGeometry x="480" y="535" width="740" height="95" as="geometry" />
        </mxCell>
        <mxCell id="Pg81uQ4RBYQgmMe1Dac4-17" value="&lt;span style=&quot;font-size: 14pt; font-family: Calibri; color: black;&quot;&gt;TO&amp;nbsp;BE&lt;br&gt;&lt;/span&gt;&lt;span style=&quot;font-size: 14pt; font-family: Calibri; color: black;&quot;&gt;(целевая&lt;br&gt;модель с доработками УНФ)&lt;/span&gt;" style="rounded=1;whiteSpace=wrap;html=1;fillColor=#d5e8d4;strokeColor=#82b366;shadow=1;" parent="1" vertex="1">
          <mxGeometry x="160" y="410" width="300" height="100" as="geometry" />
        </mxCell>
        <mxCell id="g-pLH73u830rvSYZ1jhn-6" value="&lt;span style=&quot;font-size: 14pt; font-family: Calibri; color: black; font-weight: bold;&quot;&gt;Подсистема :&amp;nbsp; Управление&amp;nbsp;производством &lt;/span&gt;" style="rounded=1;whiteSpace=wrap;html=1;fillColor=#d5e8d4;strokeColor=#82b366;shadow=1;" parent="1" vertex="1">
          <mxGeometry x="480" y="170" width="740" height="90" as="geometry" />
        </mxCell>
        <mxCell id="g-pLH73u830rvSYZ1jhn-7" value="&lt;div align=&quot;center&quot; style=&quot;line-height: 90%;&quot;&gt;&lt;p&gt;&lt;font style=&quot;font-size: 16px;&quot; face=&quot;Helvetica&quot;&gt;&lt;b&gt;&lt;span style=&quot;color: black; line-height: 90%;&quot;&gt;Возмож&lt;/span&gt;&lt;font style=&quot;line-height: 90%;&quot;&gt;&lt;span style=&quot;color: black;&quot;&gt;ности &quot;из коробки&quot;:&lt;/span&gt;&amp;nbsp;&lt;/font&gt;&lt;/b&gt;&lt;/font&gt;&lt;/p&gt;&lt;p&gt;&lt;font style=&quot;font-size: 16px; line-height: 90%;&quot; face=&quot;Helvetica&quot;&gt;Учет выпуска по упрощенной схеме (документ &quot;Производство продукции&quot;).&amp;nbsp;&lt;/font&gt;&lt;/p&gt;&lt;p&gt;&lt;font style=&quot;font-size: 16px; line-height: 90%;&quot; face=&quot;Helvetica&quot;&gt;Cписание материалов по плановой спецификации.&lt;/font&gt;&lt;/p&gt;&lt;p&gt;&lt;font style=&quot;font-size: 16px; line-height: 90%;&quot; face=&quot;Helvetica&quot;&gt;Расчет себестоимости по плановым ценам.&lt;/font&gt;&lt;/p&gt;&lt;/div&gt;" style="rounded=1;whiteSpace=wrap;html=1;fillColor=#dae8fc;strokeColor=#6c8ebf;shadow=1;align=center;" parent="1" vertex="1">
          <mxGeometry x="480" y="280" width="740" height="107.5" as="geometry" />
        </mxCell>
        <mxCell id="g-pLH73u830rvSYZ1jhn-8" value="&lt;p style=&quot;line-height: 80%;&quot;&gt;&lt;/p&gt;&lt;p align=&quot;center&quot; style=&quot;margin-top: 0pt; margin-bottom: 0pt; text-indent: -0.31in; direction: ltr; unicode-bidi: embed; word-break: normal;&quot; class=&quot;O1&quot;&gt;&lt;font face=&quot;Helvetica&quot; style=&quot;font-size: 17px; line-height: 80%;&quot;&gt;&lt;span style=&quot;color: black; font-weight: bold;&quot;&gt;Стратегия:&lt;/span&gt;&amp;nbsp;&lt;br&gt;Не трогать типовые механизмы УНФ,&amp;nbsp;а создать надстройку (дополнительные объекты и &lt;span style=&quot;color: black;&quot;&gt;обработки,расширения).&lt;/span&gt;&lt;/font&gt;&lt;/p&gt;&lt;p&gt;&lt;/p&gt;" style="rounded=1;whiteSpace=wrap;html=1;fillColor=#d5e8d4;strokeColor=#82b366;shadow=1;align=left;" parent="1" vertex="1">
          <mxGeometry x="480" y="410" width="740" height="100" as="geometry" />
        </mxCell>
        <mxCell id="g-pLH73u830rvSYZ1jhn-10" value="&lt;span style=&quot;font-size: 14pt; font-family: Calibri; color: black;&quot;&gt;Оценка&lt;br&gt;трудозатрат&lt;/span&gt;" style="rounded=1;whiteSpace=wrap;html=1;fillColor=#dae8fc;strokeColor=#6c8ebf;shadow=1;" parent="1" vertex="1">
          <mxGeometry x="160" y="530" width="300" height="100" as="geometry" />
        </mxCell>
      </root>
    </mxGraphModel>
  </diagram>
</mxfile>
